/* XPM */
static const char *functionpointer_obj_xpm[] = {
/* width height num_colors chars_per_pixel */
"    16    16        4            1",
/* colors */
"` c #058149",
". c #62aa70",
"# c None",
"a c #000000",
/* pixels */
"################",
"################",
"################",
"################",
"###`#`######`###",
"##`###`####``###",
"#`.###.`##`.`###",
"#`#####`#`..````",
"#`#####``.......",
"#`#####`#`..````",
"#`.###.`##`.`###",
"##`###`####``###",
"###`#`######`###",
"################",
"################",
"################"
};
