/* XPM */
static char *template_obj_xpm[] = {
/* width height num_colors chars_per_pixel */
"    16    16       16            1",
/* colors */
"` c #ffffff",
". c #f6c86f",
"# c #f6b270",
"a c #f5a85c",
"b c #fad4af",
"c c #c6a460",
"d c #353535",
"e c #635843",
"f c #eac06c",
"g c #d2ad64",
"h c #a08755",
"i c #ad9059",
"j c #deb668",
"k c #353535",
"l c #353535",
"m c #353535",
/* pixels */
"````````````````",
"````````````````",
"`````b#aaa#b````",
"````a##...##a```",
"```a#.......#a``",
"``b#.geeeeei.#b`",
"``##.fccdhcj.##`",
"``a.....dc....a`",
"``a.....dc....a`",
"``a.....dc....a`",
"``##....dc...##`",
"``b#....dc...#b`",
"```a#.......#a``",
"````a##...##a```",
"`````b#aaa#b````",
"````````````````"
};
